999
DXF File generated by ImageToStl.com - Free Image and 3D model conversion tools
0
SECTION
2
HEADER
9
$ACADVER
1
AC1009
9
$EXTMIN
10
-95.5
20
0
30
0
9
$EXTMAX
10
274.5
20
330
30
3
0
ENDSEC
0
SECTION
2
BLOCKS
0
ENDSEC
0
SECTION
2
ENTITIES
0
3DFACE
8
0
10
274.5
20
309.79998779296875
30
0
11
274.5
21
190.1999969482422
31
0
12
234.3000030517578
22
309.79998779296875
32
0
13
234.3000030517578
23
309.79998779296875
33
0
0
3DFACE
8
0
10
274.5
20
190.1999969482422
30
0
11
254.3000030517578
21
190.1999969482422
31
0
12
234.3000030517578
22
309.79998779296875
32
0
13
234.3000030517578
23
309.79998779296875
33
0
0
3DFACE
8
0
10
-75.30000305175781
20
190.1999969482422
30
0
11
61.79999923706055
21
330
31
0
12
-75.30000305175781
22
140
32
0
13
-75.30000305175781
23
140
33
0
0
3DFACE
8
0
10
61.79999923706055
20
330
30
0
11
61.79999923706055
21
245.8000030517578
31
0
12
-75.30000305175781
22
140
32
0
13
-75.30000305175781
23
140
33
0
0
3DFACE
8
0
10
-55.29999923706055
20
330
30
0
11
61.79999923706055
21
330
31
0
12
-55.29999923706055
22
309.79998779296875
32
0
13
-55.29999923706055
23
309.79998779296875
33
0
0
3DFACE
8
0
10
61.79999923706055
20
330
30
0
11
-75.30000305175781
21
190.1999969482422
31
0
12
-55.29999923706055
22
309.79998779296875
32
0
13
-55.29999923706055
23
309.79998779296875
33
0
0
3DFACE
8
0
10
-55.29999923706055
20
309.79998779296875
30
0
11
-75.30000305175781
21
190.1999969482422
31
0
12
-95.5
22
309.79998779296875
32
0
13
-95.5
23
309.79998779296875
33
0
0
3DFACE
8
0
10
-75.30000305175781
20
190.1999969482422
30
0
11
-95.5
21
190.1999969482422
31
0
12
-95.5
22
309.79998779296875
32
0
13
-95.5
23
309.79998779296875
33
0
0
3DFACE
8
0
10
-95.5
20
140
30
0
11
-75.30000305175781
21
140
31
0
12
-95.5
22
90
32
0
13
-95.5
23
90
33
0
0
3DFACE
8
0
10
-75.30000305175781
20
140
30
0
11
61.79999923706055
21
245.8000030517578
31
0
12
-95.5
22
90
32
0
13
-95.5
23
90
33
0
0
3DFACE
8
0
10
-95.5
20
90
30
0
11
61.79999923706055
21
245.8000030517578
31
0
12
0
22
90
32
0
13
0
23
90
33
0
0
3DFACE
8
0
10
61.79999923706055
20
245.8000030517578
30
0
11
117.20000457763672
21
245.8000030517578
31
0
12
0
22
90
32
0
13
0
23
90
33
0
0
3DFACE
8
0
10
179
20
0
30
0
11
0
21
0
31
0
12
179
22
90
32
0
13
179
23
90
33
0
0
3DFACE
8
0
10
0
20
0
30
0
11
0
21
90
31
0
12
179
22
90
32
0
13
179
23
90
33
0
0
3DFACE
8
0
10
274.5
20
140
30
0
11
274.5
21
90
31
0
12
254.3000030517578
22
140
32
0
13
254.3000030517578
23
140
33
0
0
3DFACE
8
0
10
274.5
20
90
30
0
11
179
21
90
31
0
12
254.3000030517578
22
140
32
0
13
254.3000030517578
23
140
33
0
0
3DFACE
8
0
10
254.3000030517578
20
140
30
0
11
179
21
90
31
0
12
254.3000030517578
22
190.1999969482422
32
0
13
254.3000030517578
23
190.1999969482422
33
0
0
3DFACE
8
0
10
179
20
90
30
0
11
0
21
90
31
0
12
254.3000030517578
22
190.1999969482422
32
0
13
254.3000030517578
23
190.1999969482422
33
0
0
3DFACE
8
0
10
254.3000030517578
20
190.1999969482422
30
0
11
0
21
90
31
0
12
234.3000030517578
22
309.79998779296875
32
0
13
234.3000030517578
23
309.79998779296875
33
0
0
3DFACE
8
0
10
0
20
90
30
0
11
117.20000457763672
21
245.8000030517578
31
0
12
234.3000030517578
22
309.79998779296875
32
0
13
234.3000030517578
23
309.79998779296875
33
0
0
3DFACE
8
0
10
234.3000030517578
20
309.79998779296875
30
0
11
117.20000457763672
21
245.8000030517578
31
0
12
234.3000030517578
22
330
32
0
13
234.3000030517578
23
330
33
0
0
3DFACE
8
0
10
117.20000457763672
20
245.8000030517578
30
0
11
117.20000457763672
21
330
31
0
12
234.3000030517578
22
330
32
0
13
234.3000030517578
23
330
33
0
0
3DFACE
8
0
10
-75.30000305175781
20
140
30
3
11
-95.5
21
140
31
3
12
-95.5
22
90
32
3
13
-95.5
23
90
33
3
0
3DFACE
8
0
10
254.3000030517578
20
190.1999969482422
30
3
11
274.5
21
190.1999969482422
31
3
12
274.5
22
309.79998779296875
32
3
13
274.5
23
309.79998779296875
33
3
0
3DFACE
8
0
10
234.3000030517578
20
330
30
3
11
117.20000457763672
21
330
31
3
12
117.20000457763672
22
245.8000030517578
32
3
13
117.20000457763672
23
245.8000030517578
33
3
0
3DFACE
8
0
10
0
20
0
30
3
11
179
21
0
31
3
12
0
22
90
32
3
13
0
23
90
33
3
0
3DFACE
8
0
10
179
20
0
30
3
11
179
21
90
31
3
12
0
22
90
32
3
13
0
23
90
33
3
0
3DFACE
8
0
10
61.79999923706055
20
330
30
3
11
-55.29999923706055
21
330
31
3
12
61.79999923706055
22
245.8000030517578
32
3
13
61.79999923706055
23
245.8000030517578
33
3
0
3DFACE
8
0
10
-55.29999923706055
20
330
30
3
11
-55.29999923706055
21
309.79998779296875
31
3
12
61.79999923706055
22
245.8000030517578
32
3
13
61.79999923706055
23
245.8000030517578
33
3
0
3DFACE
8
0
10
61.79999923706055
20
245.8000030517578
30
3
11
-55.29999923706055
21
309.79998779296875
31
3
12
-75.30000305175781
22
190.1999969482422
32
3
13
-75.30000305175781
23
190.1999969482422
33
3
0
3DFACE
8
0
10
-55.29999923706055
20
309.79998779296875
30
3
11
-95.5
21
309.79998779296875
31
3
12
-75.30000305175781
22
190.1999969482422
32
3
13
-75.30000305175781
23
190.1999969482422
33
3
0
3DFACE
8
0
10
-75.30000305175781
20
190.1999969482422
30
3
11
-95.5
21
309.79998779296875
31
3
12
-95.5
22
190.1999969482422
32
3
13
-95.5
23
190.1999969482422
33
3
0
3DFACE
8
0
10
234.3000030517578
20
309.79998779296875
30
3
11
234.3000030517578
21
330
31
3
12
0
22
90
32
3
13
0
23
90
33
3
0
3DFACE
8
0
10
234.3000030517578
20
330
30
3
11
117.20000457763672
21
245.8000030517578
31
3
12
0
22
90
32
3
13
0
23
90
33
3
0
3DFACE
8
0
10
0
20
90
30
3
11
117.20000457763672
21
245.8000030517578
31
3
12
-95.5
22
90
32
3
13
-95.5
23
90
33
3
0
3DFACE
8
0
10
117.20000457763672
20
245.8000030517578
30
3
11
61.79999923706055
21
245.8000030517578
31
3
12
-95.5
22
90
32
3
13
-95.5
23
90
33
3
0
3DFACE
8
0
10
-95.5
20
90
30
3
11
61.79999923706055
21
245.8000030517578
31
3
12
-75.30000305175781
22
140
32
3
13
-75.30000305175781
23
140
33
3
0
3DFACE
8
0
10
61.79999923706055
20
245.8000030517578
30
3
11
-75.30000305175781
21
190.1999969482422
31
3
12
-75.30000305175781
22
140
32
3
13
-75.30000305175781
23
140
33
3
0
3DFACE
8
0
10
274.5
20
90
30
3
11
274.5
21
140
31
3
12
179
22
90
32
3
13
179
23
90
33
3
0
3DFACE
8
0
10
274.5
20
140
30
3
11
254.3000030517578
21
140
31
3
12
179
22
90
32
3
13
179
23
90
33
3
0
3DFACE
8
0
10
179
20
90
30
3
11
254.3000030517578
21
140
31
3
12
0
22
90
32
3
13
0
23
90
33
3
0
3DFACE
8
0
10
254.3000030517578
20
140
30
3
11
254.3000030517578
21
190.1999969482422
31
3
12
0
22
90
32
3
13
0
23
90
33
3
0
3DFACE
8
0
10
0
20
90
30
3
11
254.3000030517578
21
190.1999969482422
31
3
12
234.3000030517578
22
309.79998779296875
32
3
13
234.3000030517578
23
309.79998779296875
33
3
0
3DFACE
8
0
10
254.3000030517578
20
190.1999969482422
30
3
11
274.5
21
309.79998779296875
31
3
12
234.3000030517578
22
309.79998779296875
32
3
13
234.3000030517578
23
309.79998779296875
33
3
0
3DFACE
8
0
10
0
20
90
30
3
11
-95.5
21
90
31
3
12
0
22
90
32
0
13
0
23
90
33
0
0
3DFACE
8
0
10
-95.5
20
90
30
3
11
-95.5
21
90
31
0
12
0
22
90
32
0
13
0
23
90
33
0
0
3DFACE
8
0
10
-95.5
20
90
30
3
11
-95.5
21
140
31
3
12
-95.5
22
90
32
0
13
-95.5
23
90
33
0
0
3DFACE
8
0
10
-95.5
20
140
30
3
11
-95.5
21
140
31
0
12
-95.5
22
90
32
0
13
-95.5
23
90
33
0
0
3DFACE
8
0
10
-95.5
20
140
30
3
11
-75.30000305175781
21
140
31
3
12
-95.5
22
140
32
0
13
-95.5
23
140
33
0
0
3DFACE
8
0
10
-75.30000305175781
20
140
30
3
11
-75.30000305175781
21
140
31
0
12
-95.5
22
140
32
0
13
-95.5
23
140
33
0
0
3DFACE
8
0
10
-75.30000305175781
20
140
30
3
11
-75.30000305175781
21
190.1999969482422
31
3
12
-75.30000305175781
22
140
32
0
13
-75.30000305175781
23
140
33
0
0
3DFACE
8
0
10
-75.30000305175781
20
190.1999969482422
30
3
11
-75.30000305175781
21
190.1999969482422
31
0
12
-75.30000305175781
22
140
32
0
13
-75.30000305175781
23
140
33
0
0
3DFACE
8
0
10
-75.30000305175781
20
190.1999969482422
30
3
11
-95.5
21
190.1999969482422
31
3
12
-75.30000305175781
22
190.1999969482422
32
0
13
-75.30000305175781
23
190.1999969482422
33
0
0
3DFACE
8
0
10
-95.5
20
190.1999969482422
30
3
11
-95.5
21
190.1999969482422
31
0
12
-75.30000305175781
22
190.1999969482422
32
0
13
-75.30000305175781
23
190.1999969482422
33
0
0
3DFACE
8
0
10
-95.5
20
190.1999969482422
30
3
11
-95.5
21
309.79998779296875
31
3
12
-95.5
22
190.1999969482422
32
0
13
-95.5
23
190.1999969482422
33
0
0
3DFACE
8
0
10
-95.5
20
309.79998779296875
30
3
11
-95.5
21
309.79998779296875
31
0
12
-95.5
22
190.1999969482422
32
0
13
-95.5
23
190.1999969482422
33
0
0
3DFACE
8
0
10
-95.5
20
309.79998779296875
30
3
11
-55.29999923706055
21
309.79998779296875
31
3
12
-95.5
22
309.79998779296875
32
0
13
-95.5
23
309.79998779296875
33
0
0
3DFACE
8
0
10
-55.29999923706055
20
309.79998779296875
30
3
11
-55.29999923706055
21
309.79998779296875
31
0
12
-95.5
22
309.79998779296875
32
0
13
-95.5
23
309.79998779296875
33
0
0
3DFACE
8
0
10
-55.29999923706055
20
309.79998779296875
30
3
11
-55.29999923706055
21
330
31
3
12
-55.29999923706055
22
309.79998779296875
32
0
13
-55.29999923706055
23
309.79998779296875
33
0
0
3DFACE
8
0
10
-55.29999923706055
20
330
30
3
11
-55.29999923706055
21
330
31
0
12
-55.29999923706055
22
309.79998779296875
32
0
13
-55.29999923706055
23
309.79998779296875
33
0
0
3DFACE
8
0
10
274.5
20
140
30
3
11
274.5
21
90
31
3
12
274.5
22
140
32
0
13
274.5
23
140
33
0
0
3DFACE
8
0
10
274.5
20
90
30
3
11
274.5
21
90
31
0
12
274.5
22
140
32
0
13
274.5
23
140
33
0
0
3DFACE
8
0
10
61.79999923706055
20
245.8000030517578
30
3
11
117.20000457763672
21
245.8000030517578
31
3
12
61.79999923706055
22
245.8000030517578
32
0
13
61.79999923706055
23
245.8000030517578
33
0
0
3DFACE
8
0
10
117.20000457763672
20
245.8000030517578
30
3
11
117.20000457763672
21
245.8000030517578
31
0
12
61.79999923706055
22
245.8000030517578
32
0
13
61.79999923706055
23
245.8000030517578
33
0
0
3DFACE
8
0
10
274.5
20
90
30
3
11
179
21
90
31
3
12
274.5
22
90
32
0
13
274.5
23
90
33
0
0
3DFACE
8
0
10
179
20
90
30
3
11
179
21
90
31
0
12
274.5
22
90
32
0
13
274.5
23
90
33
0
0
3DFACE
8
0
10
117.20000457763672
20
330
30
3
11
234.3000030517578
21
330
31
3
12
117.20000457763672
22
330
32
0
13
117.20000457763672
23
330
33
0
0
3DFACE
8
0
10
234.3000030517578
20
330
30
3
11
234.3000030517578
21
330
31
0
12
117.20000457763672
22
330
32
0
13
117.20000457763672
23
330
33
0
0
3DFACE
8
0
10
179
20
90
30
3
11
179
21
0
31
3
12
179
22
90
32
0
13
179
23
90
33
0
0
3DFACE
8
0
10
179
20
0
30
3
11
179
21
0
31
0
12
179
22
90
32
0
13
179
23
90
33
0
0
3DFACE
8
0
10
-55.29999923706055
20
330
30
3
11
61.79999923706055
21
330
31
3
12
-55.29999923706055
22
330
32
0
13
-55.29999923706055
23
330
33
0
0
3DFACE
8
0
10
61.79999923706055
20
330
30
3
11
61.79999923706055
21
330
31
0
12
-55.29999923706055
22
330
32
0
13
-55.29999923706055
23
330
33
0
0
3DFACE
8
0
10
254.3000030517578
20
140
30
3
11
274.5
21
140
31
3
12
254.3000030517578
22
140
32
0
13
254.3000030517578
23
140
33
0
0
3DFACE
8
0
10
274.5
20
140
30
3
11
274.5
21
140
31
0
12
254.3000030517578
22
140
32
0
13
254.3000030517578
23
140
33
0
0
3DFACE
8
0
10
0
20
0
30
3
11
0
21
90
31
3
12
0
22
0
32
0
13
0
23
0
33
0
0
3DFACE
8
0
10
0
20
90
30
3
11
0
21
90
31
0
12
0
22
0
32
0
13
0
23
0
33
0
0
3DFACE
8
0
10
234.3000030517578
20
330
30
3
11
234.3000030517578
21
309.79998779296875
31
3
12
234.3000030517578
22
330
32
0
13
234.3000030517578
23
330
33
0
0
3DFACE
8
0
10
234.3000030517578
20
309.79998779296875
30
3
11
234.3000030517578
21
309.79998779296875
31
0
12
234.3000030517578
22
330
32
0
13
234.3000030517578
23
330
33
0
0
3DFACE
8
0
10
179
20
0
30
3
11
0
21
0
31
3
12
179
22
0
32
0
13
179
23
0
33
0
0
3DFACE
8
0
10
0
20
0
30
3
11
0
21
0
31
0
12
179
22
0
32
0
13
179
23
0
33
0
0
3DFACE
8
0
10
234.3000030517578
20
309.79998779296875
30
3
11
274.5
21
309.79998779296875
31
3
12
234.3000030517578
22
309.79998779296875
32
0
13
234.3000030517578
23
309.79998779296875
33
0
0
3DFACE
8
0
10
274.5
20
309.79998779296875
30
3
11
274.5
21
309.79998779296875
31
0
12
234.3000030517578
22
309.79998779296875
32
0
13
234.3000030517578
23
309.79998779296875
33
0
0
3DFACE
8
0
10
254.3000030517578
20
190.1999969482422
30
3
11
254.3000030517578
21
140
31
3
12
254.3000030517578
22
190.1999969482422
32
0
13
254.3000030517578
23
190.1999969482422
33
0
0
3DFACE
8
0
10
254.3000030517578
20
140
30
3
11
254.3000030517578
21
140
31
0
12
254.3000030517578
22
190.1999969482422
32
0
13
254.3000030517578
23
190.1999969482422
33
0
0
3DFACE
8
0
10
274.5
20
190.1999969482422
30
3
11
254.3000030517578
21
190.1999969482422
31
3
12
274.5
22
190.1999969482422
32
0
13
274.5
23
190.1999969482422
33
0
0
3DFACE
8
0
10
254.3000030517578
20
190.1999969482422
30
3
11
254.3000030517578
21
190.1999969482422
31
0
12
274.5
22
190.1999969482422
32
0
13
274.5
23
190.1999969482422
33
0
0
3DFACE
8
0
10
274.5
20
309.79998779296875
30
3
11
274.5
21
190.1999969482422
31
3
12
274.5
22
309.79998779296875
32
0
13
274.5
23
309.79998779296875
33
0
0
3DFACE
8
0
10
274.5
20
190.1999969482422
30
3
11
274.5
21
190.1999969482422
31
0
12
274.5
22
309.79998779296875
32
0
13
274.5
23
309.79998779296875
33
0
0
3DFACE
8
0
10
117.20000457763672
20
245.8000030517578
30
3
11
117.20000457763672
21
330
31
3
12
117.20000457763672
22
245.8000030517578
32
0
13
117.20000457763672
23
245.8000030517578
33
0
0
3DFACE
8
0
10
117.20000457763672
20
330
30
3
11
117.20000457763672
21
330
31
0
12
117.20000457763672
22
245.8000030517578
32
0
13
117.20000457763672
23
245.8000030517578
33
0
0
3DFACE
8
0
10
61.79999923706055
20
330
30
3
11
61.79999923706055
21
245.8000030517578
31
3
12
61.79999923706055
22
330
32
0
13
61.79999923706055
23
330
33
0
0
3DFACE
8
0
10
61.79999923706055
20
245.8000030517578
30
3
11
61.79999923706055
21
245.8000030517578
31
0
12
61.79999923706055
22
330
32
0
13
61.79999923706055
23
330
33
0
0
ENDSEC
0
EOF
